<mxfile host="app.diagrams.net" agent="Mozilla/5.0 (Macintosh; Intel Mac OS X 10_15_7) AppleWebKit/605.1.15 (KHTML, like Gecko) Version/18.2 Safari/605.1.15" version="26.0.6">
  <diagram name="Pagina-1" id="CEtmXKXBpQeazpoTnXLW">
    <mxGraphModel grid="1" page="1" gridSize="10" guides="1" tooltips="1" connect="1" arrows="1" fold="1" pageScale="1" pageWidth="827" pageHeight="1169" math="0" shadow="0">
      <root>
        <mxCell id="0" />
        <mxCell id="1" parent="0" />
        <mxCell id="4BkYFdHEoDKxAdIRVf8H-1" value="&lt;b&gt;Esercizio7&lt;/b&gt;: Creare un diagramma di flusso che prenda in input un valore N. Verificare e stampare quanti&lt;div&gt;numeri dispari sono compresi tra 1 ed N. (% --&amp;gt; Resto della divisione,&lt;/div&gt;&lt;div&gt;&amp;nbsp;N % 2 == 1 --&amp;gt; Se il resto delle visione da 1, quindi dispari)&lt;/div&gt;&lt;div&gt;&lt;br&gt;&lt;/div&gt;&lt;div&gt;ESEMPIO: Se N = 5, tra 1 e 5 ci sono 3 numeri dispari (1, 3 e 5), quindi si dovrÃ  stampare 3.&lt;br&gt;&lt;div&gt;&lt;br&gt;&lt;/div&gt;&lt;div&gt;&lt;br&gt;&lt;/div&gt;&lt;/div&gt;" style="text;html=1;align=center;verticalAlign=middle;resizable=0;points=[];autosize=1;strokeColor=none;fillColor=none;fontSize=16;" vertex="1" parent="1">
          <mxGeometry x="30" y="40" width="770" height="150" as="geometry" />
        </mxCell>
        <mxCell id="9bKwdA7hy9PmW3QkmbJh-2" value="" style="edgeStyle=orthogonalEdgeStyle;rounded=0;orthogonalLoop=1;jettySize=auto;html=1;" edge="1" parent="1" source="FAgFWN2JOPpdHGK5piLw-1">
          <mxGeometry relative="1" as="geometry">
            <mxPoint x="414" y="320" as="targetPoint" />
          </mxGeometry>
        </mxCell>
        <mxCell id="FAgFWN2JOPpdHGK5piLw-1" value="" style="ellipse;whiteSpace=wrap;html=1;aspect=fixed;" vertex="1" parent="1">
          <mxGeometry x="384" y="230" width="60" height="60" as="geometry" />
        </mxCell>
      </root>
    </mxGraphModel>
  </diagram>
</mxfile>
